%TF.GenerationSoftware,KiCad,Pcbnew,(5.1.6)-1*%
%TF.CreationDate,2020-08-03T19:17:52-07:00*%
%TF.ProjectId,music controller,6d757369-6320-4636-9f6e-74726f6c6c65,rev?*%
%TF.SameCoordinates,Original*%
%TF.FileFunction,Copper,L2,Bot*%
%TF.FilePolarity,Positive*%
%FSLAX46Y46*%
G04 Gerber Fmt 4.6, Leading zero omitted, Abs format (unit mm)*
G04 Created by KiCad (PCBNEW (5.1.6)-1) date 2020-08-03 19:17:52*
%MOMM*%
%LPD*%
G01*
G04 APERTURE LIST*
%TA.AperFunction,ComponentPad*%
%ADD10C,1.600000*%
%TD*%
%TA.AperFunction,ComponentPad*%
%ADD11R,1.600000X1.600000*%
%TD*%
%TA.AperFunction,ComponentPad*%
%ADD12C,4.400000*%
%TD*%
%TA.AperFunction,ComponentPad*%
%ADD13C,2.200000*%
%TD*%
%TA.AperFunction,ComponentPad*%
%ADD14C,2.000000*%
%TD*%
%TA.AperFunction,ComponentPad*%
%ADD15R,2.000000X3.200000*%
%TD*%
%TA.AperFunction,ComponentPad*%
%ADD16R,2.000000X2.000000*%
%TD*%
%TA.AperFunction,Conductor*%
%ADD17C,0.250000*%
%TD*%
G04 APERTURE END LIST*
D10*
%TO.P,U1,24*%
%TO.N,Net-(U1-Pad24)*%
X86995000Y-67310000D03*
%TO.P,U1,23*%
%TO.N,Net-(U1-Pad23)*%
X86995000Y-69850000D03*
%TO.P,U1,22*%
%TO.N,Net-(SW2-Pad2)*%
X86995000Y-72390000D03*
%TO.P,U1,21*%
%TO.N,Net-(U1-Pad21)*%
X86995000Y-74930000D03*
%TO.P,U1,20*%
%TO.N,Net-(U1-Pad20)*%
X86995000Y-77470000D03*
%TO.P,U1,19*%
%TO.N,Net-(U1-Pad19)*%
X86995000Y-80010000D03*
%TO.P,U1,18*%
%TO.N,Net-(U1-Pad18)*%
X86995000Y-82550000D03*
%TO.P,U1,17*%
%TO.N,Net-(U1-Pad17)*%
X86995000Y-85090000D03*
%TO.P,U1,16*%
%TO.N,Net-(U1-Pad16)*%
X86995000Y-87630000D03*
%TO.P,U1,15*%
%TO.N,Net-(U1-Pad15)*%
X86995000Y-90170000D03*
%TO.P,U1,14*%
%TO.N,Enc1*%
X86995000Y-92710000D03*
%TO.P,U1,13*%
%TO.N,Enc2*%
X86995000Y-95250000D03*
%TO.P,U1,12*%
%TO.N,Net-(U1-Pad12)*%
X102235000Y-95250000D03*
%TO.P,U1,11*%
%TO.N,Col1*%
X102235000Y-92710000D03*
%TO.P,U1,10*%
%TO.N,Col2*%
X102235000Y-90170000D03*
%TO.P,U1,9*%
%TO.N,Col3*%
X102235000Y-87630000D03*
%TO.P,U1,8*%
%TO.N,Row2*%
X102235000Y-85090000D03*
%TO.P,U1,7*%
%TO.N,Row1*%
X102235000Y-82550000D03*
%TO.P,U1,6*%
%TO.N,Net-(U1-Pad6)*%
X102235000Y-80010000D03*
%TO.P,U1,5*%
%TO.N,Net-(U1-Pad5)*%
X102235000Y-77470000D03*
%TO.P,U1,4*%
%TO.N,Net-(U1-Pad4)*%
X102235000Y-74930000D03*
%TO.P,U1,3*%
%TO.N,Gnd*%
X102235000Y-72390000D03*
%TO.P,U1,2*%
%TO.N,Net-(U1-Pad2)*%
X102235000Y-69850000D03*
D11*
%TO.P,U1,1*%
%TO.N,Net-(U1-Pad1)*%
X102235000Y-67310000D03*
%TD*%
D12*
%TO.P,,1*%
%TO.N,N/C*%
X107950000Y-69850000D03*
%TD*%
%TO.P,,1*%
%TO.N,N/C*%
X141605000Y-67945000D03*
%TD*%
%TO.P,,1*%
%TO.N,N/C*%
X141605000Y-122555000D03*
%TD*%
%TO.P,,1*%
%TO.N,N/C*%
X86995000Y-122555000D03*
%TD*%
D13*
%TO.P,SW4,2*%
%TO.N,Col2*%
X110490000Y-108585000D03*
%TO.P,SW4,1*%
%TO.N,Row2*%
X116840000Y-106045000D03*
%TD*%
D14*
%TO.P,SW1,S1*%
%TO.N,Row1*%
X116800000Y-75550000D03*
%TO.P,SW1,S2*%
%TO.N,Col2*%
X111800000Y-75550000D03*
D15*
%TO.P,SW1,MP*%
%TO.N,N/C*%
X119900000Y-82550000D03*
X108700000Y-82550000D03*
D14*
%TO.P,SW1,B*%
%TO.N,Enc2*%
X116800000Y-90050000D03*
%TO.P,SW1,C*%
%TO.N,Gnd*%
X114300000Y-90050000D03*
D16*
%TO.P,SW1,A*%
%TO.N,Enc1*%
X111800000Y-90050000D03*
%TD*%
D13*
%TO.P,SW5,2*%
%TO.N,Col3*%
X129540000Y-108585000D03*
%TO.P,SW5,1*%
%TO.N,Row2*%
X135890000Y-106045000D03*
%TD*%
%TO.P,SW3,2*%
%TO.N,Col1*%
X91440000Y-108585000D03*
%TO.P,SW3,1*%
%TO.N,Row2*%
X97790000Y-106045000D03*
%TD*%
D14*
%TO.P,SW2,1*%
%TO.N,Gnd*%
X139850000Y-82550000D03*
%TO.P,SW2,2*%
%TO.N,Net-(SW2-Pad2)*%
X139850000Y-78050000D03*
%TO.P,SW2,1*%
%TO.N,Gnd*%
X133350000Y-82550000D03*
%TO.P,SW2,2*%
%TO.N,Net-(SW2-Pad2)*%
X133350000Y-78050000D03*
%TD*%
D17*
%TO.N,Enc1*%
X86995000Y-92710000D02*
X93345000Y-92710000D01*
X93345000Y-92710000D02*
X98425000Y-97790000D01*
X104060000Y-97790000D02*
X111800000Y-90050000D01*
X98425000Y-97790000D02*
X104060000Y-97790000D01*
%TO.N,Enc2*%
X86995000Y-95250000D02*
X92075000Y-95250000D01*
X92075000Y-95250000D02*
X96520000Y-99695000D01*
X107155000Y-99695000D02*
X116800000Y-90050000D01*
X96520000Y-99695000D02*
X107155000Y-99695000D01*
%TO.N,Col2*%
X102235000Y-90170000D02*
X105410000Y-86995000D01*
X105410000Y-81940000D02*
X111800000Y-75550000D01*
X105410000Y-86995000D02*
X105410000Y-81940000D01*
%TD*%
M02*
