M48
; DRILL file {KiCad (5.1.6)-1} date 08/03/20 19:17:53
; FORMAT={-:-/ absolute / inch / decimal}
; #@! TF.CreationDate,2020-08-03T19:17:53-07:00
; #@! TF.GenerationSoftware,Kicad,Pcbnew,(5.1.6)-1
FMAT,2
INCH
T1C0.0394
T2C0.0433
T3C0.0591
T4C0.0866
T5C0.1575
%
G90
G05
T1
X4.4016Y-2.9744
X4.4016Y-3.5453
X4.5Y-3.5453
X4.5984Y-2.9744
X4.5984Y-3.5453
T2
X5.25Y-3.0728
X5.25Y-3.25
X5.5059Y-3.0728
X5.5059Y-3.25
X3.425Y-2.65
X3.425Y-2.75
X3.425Y-2.85
X3.425Y-2.95
X3.425Y-3.05
X3.425Y-3.15
X3.425Y-3.25
X3.425Y-3.35
X3.425Y-3.45
X3.425Y-3.55
X3.425Y-3.65
X3.425Y-3.75
X4.025Y-2.65
X4.025Y-2.75
X4.025Y-2.85
X4.025Y-2.95
X4.025Y-3.05
X4.025Y-3.15
X4.025Y-3.25
X4.025Y-3.35
X4.025Y-3.45
X4.025Y-3.55
X4.025Y-3.65
X4.025Y-3.75
T3
X4.35Y-4.275
X4.6Y-4.175
X3.6Y-4.275
X3.85Y-4.175
X5.1Y-4.275
X5.35Y-4.175
T4
X3.425Y-4.825
X5.575Y-4.825
X5.575Y-2.675
X4.25Y-2.75
T5
X4.5Y-4.375
X3.75Y-4.375
X5.25Y-4.375
T3
G00X4.2795Y-3.2756
M15
G01X4.2795Y-3.2244
M16
G05
G00X4.7205Y-3.2756
M15
G01X4.7205Y-3.2244
M16
G05
T0
M30
