%TF.GenerationSoftware,KiCad,Pcbnew,(5.1.6)-1*%
%TF.CreationDate,2020-08-03T19:17:52-07:00*%
%TF.ProjectId,music controller,6d757369-6320-4636-9f6e-74726f6c6c65,rev?*%
%TF.SameCoordinates,Original*%
%TF.FileFunction,Legend,Bot*%
%TF.FilePolarity,Positive*%
%FSLAX46Y46*%
G04 Gerber Fmt 4.6, Leading zero omitted, Abs format (unit mm)*
G04 Created by KiCad (PCBNEW (5.1.6)-1) date 2020-08-03 19:17:52*
%MOMM*%
%LPD*%
G01*
G04 APERTURE LIST*
%ADD10C,0.150000*%
%ADD11C,0.120000*%
G04 APERTURE END LIST*
D10*
%TO.C,U1*%
X103505000Y-66040000D02*
X103505000Y-96520000D01*
X103505000Y-66040000D02*
X98425000Y-66040000D01*
X98425000Y-66040000D02*
X98425000Y-63500000D01*
X98425000Y-63500000D02*
X90805000Y-63500000D01*
X90805000Y-63500000D02*
X90805000Y-66040000D01*
X90805000Y-66040000D02*
X85725000Y-66040000D01*
X85725000Y-66040000D02*
X85725000Y-96520000D01*
X85725000Y-96520000D02*
X103505000Y-96520000D01*
D11*
%TO.C,SW2*%
X134350000Y-77050000D02*
X138850000Y-77050000D01*
X133100000Y-81050000D02*
X133100000Y-79550000D01*
X138850000Y-83550000D02*
X134350000Y-83550000D01*
X140100000Y-79550000D02*
X140100000Y-81050000D01*
%TO.C,U1*%
D10*
X83907380Y-80518095D02*
X84716904Y-80518095D01*
X84812142Y-80565714D01*
X84859761Y-80613333D01*
X84907380Y-80708571D01*
X84907380Y-80899047D01*
X84859761Y-80994285D01*
X84812142Y-81041904D01*
X84716904Y-81089523D01*
X83907380Y-81089523D01*
X84907380Y-82089523D02*
X84907380Y-81518095D01*
X84907380Y-81803809D02*
X83907380Y-81803809D01*
X84050238Y-81708571D01*
X84145476Y-81613333D01*
X84193095Y-81518095D01*
%TO.C,SW2*%
X137933333Y-84954761D02*
X137790476Y-85002380D01*
X137552380Y-85002380D01*
X137457142Y-84954761D01*
X137409523Y-84907142D01*
X137361904Y-84811904D01*
X137361904Y-84716666D01*
X137409523Y-84621428D01*
X137457142Y-84573809D01*
X137552380Y-84526190D01*
X137742857Y-84478571D01*
X137838095Y-84430952D01*
X137885714Y-84383333D01*
X137933333Y-84288095D01*
X137933333Y-84192857D01*
X137885714Y-84097619D01*
X137838095Y-84050000D01*
X137742857Y-84002380D01*
X137504761Y-84002380D01*
X137361904Y-84050000D01*
X137028571Y-84002380D02*
X136790476Y-85002380D01*
X136600000Y-84288095D01*
X136409523Y-85002380D01*
X136171428Y-84002380D01*
X135838095Y-84097619D02*
X135790476Y-84050000D01*
X135695238Y-84002380D01*
X135457142Y-84002380D01*
X135361904Y-84050000D01*
X135314285Y-84097619D01*
X135266666Y-84192857D01*
X135266666Y-84288095D01*
X135314285Y-84430952D01*
X135885714Y-85002380D01*
X135266666Y-85002380D01*
%TD*%
M02*
