%TF.GenerationSoftware,KiCad,Pcbnew,(5.1.6)-1*%
%TF.CreationDate,2020-08-03T19:17:52-07:00*%
%TF.ProjectId,music controller,6d757369-6320-4636-9f6e-74726f6c6c65,rev?*%
%TF.SameCoordinates,Original*%
%TF.FileFunction,Soldermask,Top*%
%TF.FilePolarity,Negative*%
%FSLAX46Y46*%
G04 Gerber Fmt 4.6, Leading zero omitted, Abs format (unit mm)*
G04 Created by KiCad (PCBNEW (5.1.6)-1) date 2020-08-03 19:17:52*
%MOMM*%
%LPD*%
G01*
G04 APERTURE LIST*
%ADD10C,1.500000*%
%ADD11C,1.701600*%
%ADD12R,1.701600X1.701600*%
%ADD13C,4.501600*%
%ADD14C,4.101600*%
%ADD15C,2.301600*%
%ADD16C,2.101600*%
%ADD17R,2.101600X3.301600*%
%ADD18R,2.101600X2.101600*%
G04 APERTURE END LIST*
D10*
%TO.C,*%
X85090000Y-99060000D03*
%TD*%
%TO.C,*%
X133350000Y-123825000D03*
%TD*%
%TO.C,*%
X136525000Y-73660000D03*
%TD*%
D11*
%TO.C,U1*%
X86995000Y-67310000D03*
X86995000Y-69850000D03*
X86995000Y-72390000D03*
X86995000Y-74930000D03*
X86995000Y-77470000D03*
X86995000Y-80010000D03*
X86995000Y-82550000D03*
X86995000Y-85090000D03*
X86995000Y-87630000D03*
X86995000Y-90170000D03*
X86995000Y-92710000D03*
X86995000Y-95250000D03*
X102235000Y-95250000D03*
X102235000Y-92710000D03*
X102235000Y-90170000D03*
X102235000Y-87630000D03*
X102235000Y-85090000D03*
X102235000Y-82550000D03*
X102235000Y-80010000D03*
X102235000Y-77470000D03*
X102235000Y-74930000D03*
X102235000Y-72390000D03*
X102235000Y-69850000D03*
D12*
X102235000Y-67310000D03*
%TD*%
D13*
%TO.C,*%
X107950000Y-69850000D03*
%TD*%
%TO.C,*%
X141605000Y-67945000D03*
%TD*%
%TO.C,*%
X141605000Y-122555000D03*
%TD*%
%TO.C,*%
X86995000Y-122555000D03*
%TD*%
D14*
%TO.C,SW4*%
X114300000Y-111125000D03*
D15*
X110490000Y-108585000D03*
X116840000Y-106045000D03*
%TD*%
D16*
%TO.C,SW1*%
X116800000Y-75550000D03*
X111800000Y-75550000D03*
D17*
X119900000Y-82550000D03*
X108700000Y-82550000D03*
D16*
X116800000Y-90050000D03*
X114300000Y-90050000D03*
D18*
X111800000Y-90050000D03*
%TD*%
D14*
%TO.C,SW5*%
X133350000Y-111125000D03*
D15*
X129540000Y-108585000D03*
X135890000Y-106045000D03*
%TD*%
D14*
%TO.C,SW3*%
X95250000Y-111125000D03*
D15*
X91440000Y-108585000D03*
X97790000Y-106045000D03*
%TD*%
D16*
%TO.C,SW2*%
X139850000Y-82550000D03*
X139850000Y-78050000D03*
X133350000Y-82550000D03*
X133350000Y-78050000D03*
%TD*%
M02*
