%TF.GenerationSoftware,KiCad,Pcbnew,(5.1.6)-1*%
%TF.CreationDate,2020-08-03T19:17:52-07:00*%
%TF.ProjectId,music controller,6d757369-6320-4636-9f6e-74726f6c6c65,rev?*%
%TF.SameCoordinates,Original*%
%TF.FileFunction,Legend,Top*%
%TF.FilePolarity,Positive*%
%FSLAX46Y46*%
G04 Gerber Fmt 4.6, Leading zero omitted, Abs format (unit mm)*
G04 Created by KiCad (PCBNEW (5.1.6)-1) date 2020-08-03 19:17:52*
%MOMM*%
%LPD*%
G01*
G04 APERTURE LIST*
%ADD10C,0.150000*%
%ADD11C,0.120000*%
G04 APERTURE END LIST*
D10*
X123579047Y-108942142D02*
X123531428Y-108989761D01*
X123388571Y-109037380D01*
X123293333Y-109037380D01*
X123150476Y-108989761D01*
X123055238Y-108894523D01*
X123007619Y-108799285D01*
X122960000Y-108608809D01*
X122960000Y-108465952D01*
X123007619Y-108275476D01*
X123055238Y-108180238D01*
X123150476Y-108085000D01*
X123293333Y-108037380D01*
X123388571Y-108037380D01*
X123531428Y-108085000D01*
X123579047Y-108132619D01*
X124150476Y-109037380D02*
X124055238Y-108989761D01*
X124007619Y-108942142D01*
X123960000Y-108846904D01*
X123960000Y-108561190D01*
X124007619Y-108465952D01*
X124055238Y-108418333D01*
X124150476Y-108370714D01*
X124293333Y-108370714D01*
X124388571Y-108418333D01*
X124436190Y-108465952D01*
X124483809Y-108561190D01*
X124483809Y-108846904D01*
X124436190Y-108942142D01*
X124388571Y-108989761D01*
X124293333Y-109037380D01*
X124150476Y-109037380D01*
X125055238Y-109037380D02*
X124960000Y-108989761D01*
X124912380Y-108894523D01*
X124912380Y-108037380D01*
X125340952Y-108037380D02*
X125960000Y-108037380D01*
X125626666Y-108418333D01*
X125769523Y-108418333D01*
X125864761Y-108465952D01*
X125912380Y-108513571D01*
X125960000Y-108608809D01*
X125960000Y-108846904D01*
X125912380Y-108942142D01*
X125864761Y-108989761D01*
X125769523Y-109037380D01*
X125483809Y-109037380D01*
X125388571Y-108989761D01*
X125340952Y-108942142D01*
X104529047Y-108942142D02*
X104481428Y-108989761D01*
X104338571Y-109037380D01*
X104243333Y-109037380D01*
X104100476Y-108989761D01*
X104005238Y-108894523D01*
X103957619Y-108799285D01*
X103910000Y-108608809D01*
X103910000Y-108465952D01*
X103957619Y-108275476D01*
X104005238Y-108180238D01*
X104100476Y-108085000D01*
X104243333Y-108037380D01*
X104338571Y-108037380D01*
X104481428Y-108085000D01*
X104529047Y-108132619D01*
X105100476Y-109037380D02*
X105005238Y-108989761D01*
X104957619Y-108942142D01*
X104910000Y-108846904D01*
X104910000Y-108561190D01*
X104957619Y-108465952D01*
X105005238Y-108418333D01*
X105100476Y-108370714D01*
X105243333Y-108370714D01*
X105338571Y-108418333D01*
X105386190Y-108465952D01*
X105433809Y-108561190D01*
X105433809Y-108846904D01*
X105386190Y-108942142D01*
X105338571Y-108989761D01*
X105243333Y-109037380D01*
X105100476Y-109037380D01*
X106005238Y-109037380D02*
X105910000Y-108989761D01*
X105862380Y-108894523D01*
X105862380Y-108037380D01*
X106338571Y-108132619D02*
X106386190Y-108085000D01*
X106481428Y-108037380D01*
X106719523Y-108037380D01*
X106814761Y-108085000D01*
X106862380Y-108132619D01*
X106910000Y-108227857D01*
X106910000Y-108323095D01*
X106862380Y-108465952D01*
X106290952Y-109037380D01*
X106910000Y-109037380D01*
X134747142Y-103322380D02*
X134413809Y-102846190D01*
X134175714Y-103322380D02*
X134175714Y-102322380D01*
X134556666Y-102322380D01*
X134651904Y-102370000D01*
X134699523Y-102417619D01*
X134747142Y-102512857D01*
X134747142Y-102655714D01*
X134699523Y-102750952D01*
X134651904Y-102798571D01*
X134556666Y-102846190D01*
X134175714Y-102846190D01*
X135318571Y-103322380D02*
X135223333Y-103274761D01*
X135175714Y-103227142D01*
X135128095Y-103131904D01*
X135128095Y-102846190D01*
X135175714Y-102750952D01*
X135223333Y-102703333D01*
X135318571Y-102655714D01*
X135461428Y-102655714D01*
X135556666Y-102703333D01*
X135604285Y-102750952D01*
X135651904Y-102846190D01*
X135651904Y-103131904D01*
X135604285Y-103227142D01*
X135556666Y-103274761D01*
X135461428Y-103322380D01*
X135318571Y-103322380D01*
X135985238Y-102655714D02*
X136175714Y-103322380D01*
X136366190Y-102846190D01*
X136556666Y-103322380D01*
X136747142Y-102655714D01*
X137080476Y-102417619D02*
X137128095Y-102370000D01*
X137223333Y-102322380D01*
X137461428Y-102322380D01*
X137556666Y-102370000D01*
X137604285Y-102417619D01*
X137651904Y-102512857D01*
X137651904Y-102608095D01*
X137604285Y-102750952D01*
X137032857Y-103322380D01*
X137651904Y-103322380D01*
X115697142Y-103322380D02*
X115363809Y-102846190D01*
X115125714Y-103322380D02*
X115125714Y-102322380D01*
X115506666Y-102322380D01*
X115601904Y-102370000D01*
X115649523Y-102417619D01*
X115697142Y-102512857D01*
X115697142Y-102655714D01*
X115649523Y-102750952D01*
X115601904Y-102798571D01*
X115506666Y-102846190D01*
X115125714Y-102846190D01*
X116268571Y-103322380D02*
X116173333Y-103274761D01*
X116125714Y-103227142D01*
X116078095Y-103131904D01*
X116078095Y-102846190D01*
X116125714Y-102750952D01*
X116173333Y-102703333D01*
X116268571Y-102655714D01*
X116411428Y-102655714D01*
X116506666Y-102703333D01*
X116554285Y-102750952D01*
X116601904Y-102846190D01*
X116601904Y-103131904D01*
X116554285Y-103227142D01*
X116506666Y-103274761D01*
X116411428Y-103322380D01*
X116268571Y-103322380D01*
X116935238Y-102655714D02*
X117125714Y-103322380D01*
X117316190Y-102846190D01*
X117506666Y-103322380D01*
X117697142Y-102655714D01*
X118030476Y-102417619D02*
X118078095Y-102370000D01*
X118173333Y-102322380D01*
X118411428Y-102322380D01*
X118506666Y-102370000D01*
X118554285Y-102417619D01*
X118601904Y-102512857D01*
X118601904Y-102608095D01*
X118554285Y-102750952D01*
X117982857Y-103322380D01*
X118601904Y-103322380D01*
X96647142Y-103322380D02*
X96313809Y-102846190D01*
X96075714Y-103322380D02*
X96075714Y-102322380D01*
X96456666Y-102322380D01*
X96551904Y-102370000D01*
X96599523Y-102417619D01*
X96647142Y-102512857D01*
X96647142Y-102655714D01*
X96599523Y-102750952D01*
X96551904Y-102798571D01*
X96456666Y-102846190D01*
X96075714Y-102846190D01*
X97218571Y-103322380D02*
X97123333Y-103274761D01*
X97075714Y-103227142D01*
X97028095Y-103131904D01*
X97028095Y-102846190D01*
X97075714Y-102750952D01*
X97123333Y-102703333D01*
X97218571Y-102655714D01*
X97361428Y-102655714D01*
X97456666Y-102703333D01*
X97504285Y-102750952D01*
X97551904Y-102846190D01*
X97551904Y-103131904D01*
X97504285Y-103227142D01*
X97456666Y-103274761D01*
X97361428Y-103322380D01*
X97218571Y-103322380D01*
X97885238Y-102655714D02*
X98075714Y-103322380D01*
X98266190Y-102846190D01*
X98456666Y-103322380D01*
X98647142Y-102655714D01*
X98980476Y-102417619D02*
X99028095Y-102370000D01*
X99123333Y-102322380D01*
X99361428Y-102322380D01*
X99456666Y-102370000D01*
X99504285Y-102417619D01*
X99551904Y-102512857D01*
X99551904Y-102608095D01*
X99504285Y-102750952D01*
X98932857Y-103322380D01*
X99551904Y-103322380D01*
X85479047Y-108942142D02*
X85431428Y-108989761D01*
X85288571Y-109037380D01*
X85193333Y-109037380D01*
X85050476Y-108989761D01*
X84955238Y-108894523D01*
X84907619Y-108799285D01*
X84860000Y-108608809D01*
X84860000Y-108465952D01*
X84907619Y-108275476D01*
X84955238Y-108180238D01*
X85050476Y-108085000D01*
X85193333Y-108037380D01*
X85288571Y-108037380D01*
X85431428Y-108085000D01*
X85479047Y-108132619D01*
X86050476Y-109037380D02*
X85955238Y-108989761D01*
X85907619Y-108942142D01*
X85860000Y-108846904D01*
X85860000Y-108561190D01*
X85907619Y-108465952D01*
X85955238Y-108418333D01*
X86050476Y-108370714D01*
X86193333Y-108370714D01*
X86288571Y-108418333D01*
X86336190Y-108465952D01*
X86383809Y-108561190D01*
X86383809Y-108846904D01*
X86336190Y-108942142D01*
X86288571Y-108989761D01*
X86193333Y-109037380D01*
X86050476Y-109037380D01*
X86955238Y-109037380D02*
X86860000Y-108989761D01*
X86812380Y-108894523D01*
X86812380Y-108037380D01*
X87860000Y-109037380D02*
X87288571Y-109037380D01*
X87574285Y-109037380D02*
X87574285Y-108037380D01*
X87479047Y-108180238D01*
X87383809Y-108275476D01*
X87288571Y-108323095D01*
X110879047Y-73382142D02*
X110831428Y-73429761D01*
X110688571Y-73477380D01*
X110593333Y-73477380D01*
X110450476Y-73429761D01*
X110355238Y-73334523D01*
X110307619Y-73239285D01*
X110260000Y-73048809D01*
X110260000Y-72905952D01*
X110307619Y-72715476D01*
X110355238Y-72620238D01*
X110450476Y-72525000D01*
X110593333Y-72477380D01*
X110688571Y-72477380D01*
X110831428Y-72525000D01*
X110879047Y-72572619D01*
X111450476Y-73477380D02*
X111355238Y-73429761D01*
X111307619Y-73382142D01*
X111260000Y-73286904D01*
X111260000Y-73001190D01*
X111307619Y-72905952D01*
X111355238Y-72858333D01*
X111450476Y-72810714D01*
X111593333Y-72810714D01*
X111688571Y-72858333D01*
X111736190Y-72905952D01*
X111783809Y-73001190D01*
X111783809Y-73286904D01*
X111736190Y-73382142D01*
X111688571Y-73429761D01*
X111593333Y-73477380D01*
X111450476Y-73477380D01*
X112355238Y-73477380D02*
X112260000Y-73429761D01*
X112212380Y-73334523D01*
X112212380Y-72477380D01*
X112688571Y-72572619D02*
X112736190Y-72525000D01*
X112831428Y-72477380D01*
X113069523Y-72477380D01*
X113164761Y-72525000D01*
X113212380Y-72572619D01*
X113260000Y-72667857D01*
X113260000Y-72763095D01*
X113212380Y-72905952D01*
X112640952Y-73477380D01*
X113260000Y-73477380D01*
X115697142Y-73477380D02*
X115363809Y-73001190D01*
X115125714Y-73477380D02*
X115125714Y-72477380D01*
X115506666Y-72477380D01*
X115601904Y-72525000D01*
X115649523Y-72572619D01*
X115697142Y-72667857D01*
X115697142Y-72810714D01*
X115649523Y-72905952D01*
X115601904Y-72953571D01*
X115506666Y-73001190D01*
X115125714Y-73001190D01*
X116268571Y-73477380D02*
X116173333Y-73429761D01*
X116125714Y-73382142D01*
X116078095Y-73286904D01*
X116078095Y-73001190D01*
X116125714Y-72905952D01*
X116173333Y-72858333D01*
X116268571Y-72810714D01*
X116411428Y-72810714D01*
X116506666Y-72858333D01*
X116554285Y-72905952D01*
X116601904Y-73001190D01*
X116601904Y-73286904D01*
X116554285Y-73382142D01*
X116506666Y-73429761D01*
X116411428Y-73477380D01*
X116268571Y-73477380D01*
X116935238Y-72810714D02*
X117125714Y-73477380D01*
X117316190Y-73001190D01*
X117506666Y-73477380D01*
X117697142Y-72810714D01*
X118601904Y-73477380D02*
X118030476Y-73477380D01*
X118316190Y-73477380D02*
X118316190Y-72477380D01*
X118220952Y-72620238D01*
X118125714Y-72715476D01*
X118030476Y-72763095D01*
X129627380Y-78557380D02*
X129294047Y-78081190D01*
X129055952Y-78557380D02*
X129055952Y-77557380D01*
X129436904Y-77557380D01*
X129532142Y-77605000D01*
X129579761Y-77652619D01*
X129627380Y-77747857D01*
X129627380Y-77890714D01*
X129579761Y-77985952D01*
X129532142Y-78033571D01*
X129436904Y-78081190D01*
X129055952Y-78081190D01*
X130008333Y-78509761D02*
X130151190Y-78557380D01*
X130389285Y-78557380D01*
X130484523Y-78509761D01*
X130532142Y-78462142D01*
X130579761Y-78366904D01*
X130579761Y-78271666D01*
X130532142Y-78176428D01*
X130484523Y-78128809D01*
X130389285Y-78081190D01*
X130198809Y-78033571D01*
X130103571Y-77985952D01*
X130055952Y-77938333D01*
X130008333Y-77843095D01*
X130008333Y-77747857D01*
X130055952Y-77652619D01*
X130103571Y-77605000D01*
X130198809Y-77557380D01*
X130436904Y-77557380D01*
X130579761Y-77605000D01*
X130865476Y-77557380D02*
X131436904Y-77557380D01*
X131151190Y-78557380D02*
X131151190Y-77557380D01*
X129413095Y-82050000D02*
X129317857Y-82002380D01*
X129175000Y-82002380D01*
X129032142Y-82050000D01*
X128936904Y-82145238D01*
X128889285Y-82240476D01*
X128841666Y-82430952D01*
X128841666Y-82573809D01*
X128889285Y-82764285D01*
X128936904Y-82859523D01*
X129032142Y-82954761D01*
X129175000Y-83002380D01*
X129270238Y-83002380D01*
X129413095Y-82954761D01*
X129460714Y-82907142D01*
X129460714Y-82573809D01*
X129270238Y-82573809D01*
X129889285Y-83002380D02*
X129889285Y-82002380D01*
X130460714Y-83002380D01*
X130460714Y-82002380D01*
X130936904Y-83002380D02*
X130936904Y-82002380D01*
X131175000Y-82002380D01*
X131317857Y-82050000D01*
X131413095Y-82145238D01*
X131460714Y-82240476D01*
X131508333Y-82430952D01*
X131508333Y-82573809D01*
X131460714Y-82764285D01*
X131413095Y-82859523D01*
X131317857Y-82954761D01*
X131175000Y-83002380D01*
X130936904Y-83002380D01*
X116911428Y-92638571D02*
X117054285Y-92686190D01*
X117101904Y-92733809D01*
X117149523Y-92829047D01*
X117149523Y-92971904D01*
X117101904Y-93067142D01*
X117054285Y-93114761D01*
X116959047Y-93162380D01*
X116578095Y-93162380D01*
X116578095Y-92162380D01*
X116911428Y-92162380D01*
X117006666Y-92210000D01*
X117054285Y-92257619D01*
X117101904Y-92352857D01*
X117101904Y-92448095D01*
X117054285Y-92543333D01*
X117006666Y-92590952D01*
X116911428Y-92638571D01*
X116578095Y-92638571D01*
X114609523Y-93067142D02*
X114561904Y-93114761D01*
X114419047Y-93162380D01*
X114323809Y-93162380D01*
X114180952Y-93114761D01*
X114085714Y-93019523D01*
X114038095Y-92924285D01*
X113990476Y-92733809D01*
X113990476Y-92590952D01*
X114038095Y-92400476D01*
X114085714Y-92305238D01*
X114180952Y-92210000D01*
X114323809Y-92162380D01*
X114419047Y-92162380D01*
X114561904Y-92210000D01*
X114609523Y-92257619D01*
X111521904Y-92876666D02*
X111998095Y-92876666D01*
X111426666Y-93162380D02*
X111760000Y-92162380D01*
X112093333Y-93162380D01*
X83693095Y-66857619D02*
X83740714Y-66810000D01*
X83835952Y-66762380D01*
X84074047Y-66762380D01*
X84169285Y-66810000D01*
X84216904Y-66857619D01*
X84264523Y-66952857D01*
X84264523Y-67048095D01*
X84216904Y-67190952D01*
X83645476Y-67762380D01*
X84264523Y-67762380D01*
X85121666Y-67095714D02*
X85121666Y-67762380D01*
X84883571Y-66714761D02*
X84645476Y-67429047D01*
X85264523Y-67429047D01*
X84264523Y-95702380D02*
X83693095Y-95702380D01*
X83978809Y-95702380D02*
X83978809Y-94702380D01*
X83883571Y-94845238D01*
X83788333Y-94940476D01*
X83693095Y-94988095D01*
X84597857Y-94702380D02*
X85216904Y-94702380D01*
X84883571Y-95083333D01*
X85026428Y-95083333D01*
X85121666Y-95130952D01*
X85169285Y-95178571D01*
X85216904Y-95273809D01*
X85216904Y-95511904D01*
X85169285Y-95607142D01*
X85121666Y-95654761D01*
X85026428Y-95702380D01*
X84740714Y-95702380D01*
X84645476Y-95654761D01*
X84597857Y-95607142D01*
X104584523Y-95702380D02*
X104013095Y-95702380D01*
X104298809Y-95702380D02*
X104298809Y-94702380D01*
X104203571Y-94845238D01*
X104108333Y-94940476D01*
X104013095Y-94988095D01*
X104965476Y-94797619D02*
X105013095Y-94750000D01*
X105108333Y-94702380D01*
X105346428Y-94702380D01*
X105441666Y-94750000D01*
X105489285Y-94797619D01*
X105536904Y-94892857D01*
X105536904Y-94988095D01*
X105489285Y-95130952D01*
X104917857Y-95702380D01*
X105536904Y-95702380D01*
X105060714Y-67762380D02*
X104489285Y-67762380D01*
X104775000Y-67762380D02*
X104775000Y-66762380D01*
X104679761Y-66905238D01*
X104584523Y-67000476D01*
X104489285Y-67048095D01*
X128571666Y-122007380D02*
X129190714Y-122007380D01*
X128857380Y-122388333D01*
X129000238Y-122388333D01*
X129095476Y-122435952D01*
X129143095Y-122483571D01*
X129190714Y-122578809D01*
X129190714Y-122816904D01*
X129143095Y-122912142D01*
X129095476Y-122959761D01*
X129000238Y-123007380D01*
X128714523Y-123007380D01*
X128619285Y-122959761D01*
X128571666Y-122912142D01*
X126079285Y-122102619D02*
X126126904Y-122055000D01*
X126222142Y-122007380D01*
X126460238Y-122007380D01*
X126555476Y-122055000D01*
X126603095Y-122102619D01*
X126650714Y-122197857D01*
X126650714Y-122293095D01*
X126603095Y-122435952D01*
X126031666Y-123007380D01*
X126650714Y-123007380D01*
X124110714Y-123007380D02*
X123539285Y-123007380D01*
X123825000Y-123007380D02*
X123825000Y-122007380D01*
X123729761Y-122150238D01*
X123634523Y-122245476D01*
X123539285Y-122293095D01*
D11*
X127635000Y-121285000D02*
X127635000Y-123825000D01*
X125095000Y-121285000D02*
X125095000Y-123825000D01*
X122555000Y-121285000D02*
X122555000Y-123825000D01*
X130175000Y-123825000D02*
X130175000Y-121285000D01*
X118745000Y-123825000D02*
X130175000Y-123825000D01*
X118745000Y-121285000D02*
X118745000Y-123825000D01*
X130175000Y-121285000D02*
X118745000Y-121285000D01*
D10*
X120150000Y-123007380D02*
X119816666Y-122531190D01*
X119578571Y-123007380D02*
X119578571Y-122007380D01*
X119959523Y-122007380D01*
X120054761Y-122055000D01*
X120102380Y-122102619D01*
X120150000Y-122197857D01*
X120150000Y-122340714D01*
X120102380Y-122435952D01*
X120054761Y-122483571D01*
X119959523Y-122531190D01*
X119578571Y-122531190D01*
X120959523Y-122959761D02*
X120864285Y-123007380D01*
X120673809Y-123007380D01*
X120578571Y-122959761D01*
X120530952Y-122864523D01*
X120530952Y-122483571D01*
X120578571Y-122388333D01*
X120673809Y-122340714D01*
X120864285Y-122340714D01*
X120959523Y-122388333D01*
X121007142Y-122483571D01*
X121007142Y-122578809D01*
X120530952Y-122674047D01*
X121340476Y-122340714D02*
X121578571Y-123007380D01*
X121816666Y-122340714D01*
X99410238Y-122182380D02*
X99410238Y-121182380D01*
X99743571Y-121896666D01*
X100076904Y-121182380D01*
X100076904Y-122182380D01*
X100981666Y-121515714D02*
X100981666Y-122182380D01*
X100553095Y-121515714D02*
X100553095Y-122039523D01*
X100600714Y-122134761D01*
X100695952Y-122182380D01*
X100838809Y-122182380D01*
X100934047Y-122134761D01*
X100981666Y-122087142D01*
X101410238Y-122134761D02*
X101505476Y-122182380D01*
X101695952Y-122182380D01*
X101791190Y-122134761D01*
X101838809Y-122039523D01*
X101838809Y-121991904D01*
X101791190Y-121896666D01*
X101695952Y-121849047D01*
X101553095Y-121849047D01*
X101457857Y-121801428D01*
X101410238Y-121706190D01*
X101410238Y-121658571D01*
X101457857Y-121563333D01*
X101553095Y-121515714D01*
X101695952Y-121515714D01*
X101791190Y-121563333D01*
X102267380Y-122182380D02*
X102267380Y-121515714D01*
X102267380Y-121182380D02*
X102219761Y-121230000D01*
X102267380Y-121277619D01*
X102315000Y-121230000D01*
X102267380Y-121182380D01*
X102267380Y-121277619D01*
X103172142Y-122134761D02*
X103076904Y-122182380D01*
X102886428Y-122182380D01*
X102791190Y-122134761D01*
X102743571Y-122087142D01*
X102695952Y-121991904D01*
X102695952Y-121706190D01*
X102743571Y-121610952D01*
X102791190Y-121563333D01*
X102886428Y-121515714D01*
X103076904Y-121515714D01*
X103172142Y-121563333D01*
X104934047Y-122087142D02*
X104886428Y-122134761D01*
X104743571Y-122182380D01*
X104648333Y-122182380D01*
X104505476Y-122134761D01*
X104410238Y-122039523D01*
X104362619Y-121944285D01*
X104315000Y-121753809D01*
X104315000Y-121610952D01*
X104362619Y-121420476D01*
X104410238Y-121325238D01*
X104505476Y-121230000D01*
X104648333Y-121182380D01*
X104743571Y-121182380D01*
X104886428Y-121230000D01*
X104934047Y-121277619D01*
X105505476Y-122182380D02*
X105410238Y-122134761D01*
X105362619Y-122087142D01*
X105315000Y-121991904D01*
X105315000Y-121706190D01*
X105362619Y-121610952D01*
X105410238Y-121563333D01*
X105505476Y-121515714D01*
X105648333Y-121515714D01*
X105743571Y-121563333D01*
X105791190Y-121610952D01*
X105838809Y-121706190D01*
X105838809Y-121991904D01*
X105791190Y-122087142D01*
X105743571Y-122134761D01*
X105648333Y-122182380D01*
X105505476Y-122182380D01*
X106267380Y-121515714D02*
X106267380Y-122182380D01*
X106267380Y-121610952D02*
X106315000Y-121563333D01*
X106410238Y-121515714D01*
X106553095Y-121515714D01*
X106648333Y-121563333D01*
X106695952Y-121658571D01*
X106695952Y-122182380D01*
X107029285Y-121515714D02*
X107410238Y-121515714D01*
X107172142Y-121182380D02*
X107172142Y-122039523D01*
X107219761Y-122134761D01*
X107315000Y-122182380D01*
X107410238Y-122182380D01*
X107743571Y-122182380D02*
X107743571Y-121515714D01*
X107743571Y-121706190D02*
X107791190Y-121610952D01*
X107838809Y-121563333D01*
X107934047Y-121515714D01*
X108029285Y-121515714D01*
X108505476Y-122182380D02*
X108410238Y-122134761D01*
X108362619Y-122087142D01*
X108315000Y-121991904D01*
X108315000Y-121706190D01*
X108362619Y-121610952D01*
X108410238Y-121563333D01*
X108505476Y-121515714D01*
X108648333Y-121515714D01*
X108743571Y-121563333D01*
X108791190Y-121610952D01*
X108838809Y-121706190D01*
X108838809Y-121991904D01*
X108791190Y-122087142D01*
X108743571Y-122134761D01*
X108648333Y-122182380D01*
X108505476Y-122182380D01*
X109410238Y-122182380D02*
X109315000Y-122134761D01*
X109267380Y-122039523D01*
X109267380Y-121182380D01*
X109934047Y-122182380D02*
X109838809Y-122134761D01*
X109791190Y-122039523D01*
X109791190Y-121182380D01*
X110695952Y-122134761D02*
X110600714Y-122182380D01*
X110410238Y-122182380D01*
X110315000Y-122134761D01*
X110267380Y-122039523D01*
X110267380Y-121658571D01*
X110315000Y-121563333D01*
X110410238Y-121515714D01*
X110600714Y-121515714D01*
X110695952Y-121563333D01*
X110743571Y-121658571D01*
X110743571Y-121753809D01*
X110267380Y-121849047D01*
X111172142Y-122182380D02*
X111172142Y-121515714D01*
X111172142Y-121706190D02*
X111219761Y-121610952D01*
X111267380Y-121563333D01*
X111362619Y-121515714D01*
X111457857Y-121515714D01*
X112457857Y-121515714D02*
X112695952Y-122182380D01*
X112934047Y-121515714D01*
X113505476Y-121182380D02*
X113600714Y-121182380D01*
X113695952Y-121230000D01*
X113743571Y-121277619D01*
X113791190Y-121372857D01*
X113838809Y-121563333D01*
X113838809Y-121801428D01*
X113791190Y-121991904D01*
X113743571Y-122087142D01*
X113695952Y-122134761D01*
X113600714Y-122182380D01*
X113505476Y-122182380D01*
X113410238Y-122134761D01*
X113362619Y-122087142D01*
X113315000Y-121991904D01*
X113267380Y-121801428D01*
X113267380Y-121563333D01*
X113315000Y-121372857D01*
X113362619Y-121277619D01*
X113410238Y-121230000D01*
X113505476Y-121182380D01*
X114267380Y-122087142D02*
X114315000Y-122134761D01*
X114267380Y-122182380D01*
X114219761Y-122134761D01*
X114267380Y-122087142D01*
X114267380Y-122182380D01*
X115267380Y-122182380D02*
X114695952Y-122182380D01*
X114981666Y-122182380D02*
X114981666Y-121182380D01*
X114886428Y-121325238D01*
X114791190Y-121420476D01*
X114695952Y-121468095D01*
X101386428Y-123308571D02*
X101529285Y-123356190D01*
X101576904Y-123403809D01*
X101624523Y-123499047D01*
X101624523Y-123641904D01*
X101576904Y-123737142D01*
X101529285Y-123784761D01*
X101434047Y-123832380D01*
X101053095Y-123832380D01*
X101053095Y-122832380D01*
X101386428Y-122832380D01*
X101481666Y-122880000D01*
X101529285Y-122927619D01*
X101576904Y-123022857D01*
X101576904Y-123118095D01*
X101529285Y-123213333D01*
X101481666Y-123260952D01*
X101386428Y-123308571D01*
X101053095Y-123308571D01*
X102053095Y-123737142D02*
X102100714Y-123784761D01*
X102053095Y-123832380D01*
X102005476Y-123784761D01*
X102053095Y-123737142D01*
X102053095Y-123832380D01*
X103815000Y-122880000D02*
X103719761Y-122832380D01*
X103576904Y-122832380D01*
X103434047Y-122880000D01*
X103338809Y-122975238D01*
X103291190Y-123070476D01*
X103243571Y-123260952D01*
X103243571Y-123403809D01*
X103291190Y-123594285D01*
X103338809Y-123689523D01*
X103434047Y-123784761D01*
X103576904Y-123832380D01*
X103672142Y-123832380D01*
X103815000Y-123784761D01*
X103862619Y-123737142D01*
X103862619Y-123403809D01*
X103672142Y-123403809D01*
X104434047Y-123832380D02*
X104338809Y-123784761D01*
X104291190Y-123737142D01*
X104243571Y-123641904D01*
X104243571Y-123356190D01*
X104291190Y-123260952D01*
X104338809Y-123213333D01*
X104434047Y-123165714D01*
X104576904Y-123165714D01*
X104672142Y-123213333D01*
X104719761Y-123260952D01*
X104767380Y-123356190D01*
X104767380Y-123641904D01*
X104719761Y-123737142D01*
X104672142Y-123784761D01*
X104576904Y-123832380D01*
X104434047Y-123832380D01*
X105195952Y-123165714D02*
X105195952Y-123832380D01*
X105195952Y-123260952D02*
X105243571Y-123213333D01*
X105338809Y-123165714D01*
X105481666Y-123165714D01*
X105576904Y-123213333D01*
X105624523Y-123308571D01*
X105624523Y-123832380D01*
X106529285Y-123165714D02*
X106529285Y-123975238D01*
X106481666Y-124070476D01*
X106434047Y-124118095D01*
X106338809Y-124165714D01*
X106195952Y-124165714D01*
X106100714Y-124118095D01*
X106529285Y-123784761D02*
X106434047Y-123832380D01*
X106243571Y-123832380D01*
X106148333Y-123784761D01*
X106100714Y-123737142D01*
X106053095Y-123641904D01*
X106053095Y-123356190D01*
X106100714Y-123260952D01*
X106148333Y-123213333D01*
X106243571Y-123165714D01*
X106434047Y-123165714D01*
X106529285Y-123213333D01*
X108576904Y-123070476D02*
X108481666Y-123022857D01*
X108291190Y-123022857D01*
X108195952Y-123070476D01*
X108100714Y-123165714D01*
X108053095Y-123260952D01*
X108053095Y-123451428D01*
X108100714Y-123546666D01*
X108195952Y-123641904D01*
X108291190Y-123689523D01*
X108481666Y-123689523D01*
X108576904Y-123641904D01*
X108386428Y-122689523D02*
X108148333Y-122737142D01*
X107910238Y-122880000D01*
X107767380Y-123118095D01*
X107719761Y-123356190D01*
X107767380Y-123594285D01*
X107910238Y-123832380D01*
X108148333Y-123975238D01*
X108386428Y-124022857D01*
X108624523Y-123975238D01*
X108862619Y-123832380D01*
X109005476Y-123594285D01*
X109053095Y-123356190D01*
X109005476Y-123118095D01*
X108862619Y-122880000D01*
X108624523Y-122737142D01*
X108386428Y-122689523D01*
X110195952Y-122927619D02*
X110243571Y-122880000D01*
X110338809Y-122832380D01*
X110576904Y-122832380D01*
X110672142Y-122880000D01*
X110719761Y-122927619D01*
X110767380Y-123022857D01*
X110767380Y-123118095D01*
X110719761Y-123260952D01*
X110148333Y-123832380D01*
X110767380Y-123832380D01*
X111386428Y-122832380D02*
X111481666Y-122832380D01*
X111576904Y-122880000D01*
X111624523Y-122927619D01*
X111672142Y-123022857D01*
X111719761Y-123213333D01*
X111719761Y-123451428D01*
X111672142Y-123641904D01*
X111624523Y-123737142D01*
X111576904Y-123784761D01*
X111481666Y-123832380D01*
X111386428Y-123832380D01*
X111291190Y-123784761D01*
X111243571Y-123737142D01*
X111195952Y-123641904D01*
X111148333Y-123451428D01*
X111148333Y-123213333D01*
X111195952Y-123022857D01*
X111243571Y-122927619D01*
X111291190Y-122880000D01*
X111386428Y-122832380D01*
X112100714Y-122927619D02*
X112148333Y-122880000D01*
X112243571Y-122832380D01*
X112481666Y-122832380D01*
X112576904Y-122880000D01*
X112624523Y-122927619D01*
X112672142Y-123022857D01*
X112672142Y-123118095D01*
X112624523Y-123260952D01*
X112053095Y-123832380D01*
X112672142Y-123832380D01*
X113291190Y-122832380D02*
X113386428Y-122832380D01*
X113481666Y-122880000D01*
X113529285Y-122927619D01*
X113576904Y-123022857D01*
X113624523Y-123213333D01*
X113624523Y-123451428D01*
X113576904Y-123641904D01*
X113529285Y-123737142D01*
X113481666Y-123784761D01*
X113386428Y-123832380D01*
X113291190Y-123832380D01*
X113195952Y-123784761D01*
X113148333Y-123737142D01*
X113100714Y-123641904D01*
X113053095Y-123451428D01*
X113053095Y-123213333D01*
X113100714Y-123022857D01*
X113148333Y-122927619D01*
X113195952Y-122880000D01*
X113291190Y-122832380D01*
%TO.C,U1*%
X85725000Y-96520000D02*
X103505000Y-96520000D01*
X103505000Y-96520000D02*
X103505000Y-66040000D01*
X103505000Y-66040000D02*
X98425000Y-66040000D01*
X98425000Y-66040000D02*
X98425000Y-63500000D01*
X98425000Y-63500000D02*
X90805000Y-63500000D01*
X90805000Y-63500000D02*
X90805000Y-66040000D01*
X90805000Y-66040000D02*
X85725000Y-66040000D01*
X85725000Y-66040000D02*
X85725000Y-96520000D01*
D11*
%TO.C,SW4*%
X107315000Y-104140000D02*
X121285000Y-104140000D01*
X121285000Y-104140000D02*
X121285000Y-118110000D01*
X121285000Y-118110000D02*
X107315000Y-118110000D01*
X107315000Y-118110000D02*
X107315000Y-104140000D01*
%TO.C,SW1*%
X114300000Y-83050000D02*
X114300000Y-82050000D01*
X113800000Y-82550000D02*
X114800000Y-82550000D01*
X117800000Y-76450000D02*
X120200000Y-76450000D01*
X113000000Y-76450000D02*
X115600000Y-76450000D01*
X108400000Y-76450000D02*
X110800000Y-76450000D01*
X110200000Y-89750000D02*
X110500000Y-90050000D01*
X110200000Y-90350000D02*
X110200000Y-89750000D01*
X110500000Y-90050000D02*
X110200000Y-90350000D01*
X108400000Y-88650000D02*
X120200000Y-88650000D01*
X108400000Y-84550000D02*
X108400000Y-88650000D01*
X120200000Y-84550000D02*
X120200000Y-88650000D01*
X120200000Y-76450000D02*
X120200000Y-80550000D01*
X108400000Y-80550000D02*
X108400000Y-76450000D01*
X117300000Y-82550000D02*
G75*
G03*
X117300000Y-82550000I-3000000J0D01*
G01*
%TO.C,SW5*%
X126365000Y-104140000D02*
X140335000Y-104140000D01*
X140335000Y-104140000D02*
X140335000Y-118110000D01*
X140335000Y-118110000D02*
X126365000Y-118110000D01*
X126365000Y-118110000D02*
X126365000Y-104140000D01*
%TO.C,SW3*%
X88265000Y-104140000D02*
X102235000Y-104140000D01*
X102235000Y-104140000D02*
X102235000Y-118110000D01*
X102235000Y-118110000D02*
X88265000Y-118110000D01*
X88265000Y-118110000D02*
X88265000Y-104140000D01*
%TO.C,*%
D10*
%TO.C,SW4*%
X107251666Y-103274761D02*
X107394523Y-103322380D01*
X107632619Y-103322380D01*
X107727857Y-103274761D01*
X107775476Y-103227142D01*
X107823095Y-103131904D01*
X107823095Y-103036666D01*
X107775476Y-102941428D01*
X107727857Y-102893809D01*
X107632619Y-102846190D01*
X107442142Y-102798571D01*
X107346904Y-102750952D01*
X107299285Y-102703333D01*
X107251666Y-102608095D01*
X107251666Y-102512857D01*
X107299285Y-102417619D01*
X107346904Y-102370000D01*
X107442142Y-102322380D01*
X107680238Y-102322380D01*
X107823095Y-102370000D01*
X108156428Y-102322380D02*
X108394523Y-103322380D01*
X108585000Y-102608095D01*
X108775476Y-103322380D01*
X109013571Y-102322380D01*
X109823095Y-102655714D02*
X109823095Y-103322380D01*
X109585000Y-102274761D02*
X109346904Y-102989047D01*
X109965952Y-102989047D01*
%TO.C,SW1*%
X107504761Y-88583333D02*
X107552380Y-88440476D01*
X107552380Y-88202380D01*
X107504761Y-88107142D01*
X107457142Y-88059523D01*
X107361904Y-88011904D01*
X107266666Y-88011904D01*
X107171428Y-88059523D01*
X107123809Y-88107142D01*
X107076190Y-88202380D01*
X107028571Y-88392857D01*
X106980952Y-88488095D01*
X106933333Y-88535714D01*
X106838095Y-88583333D01*
X106742857Y-88583333D01*
X106647619Y-88535714D01*
X106600000Y-88488095D01*
X106552380Y-88392857D01*
X106552380Y-88154761D01*
X106600000Y-88011904D01*
X106552380Y-87678571D02*
X107552380Y-87440476D01*
X106838095Y-87250000D01*
X107552380Y-87059523D01*
X106552380Y-86821428D01*
X107552380Y-85916666D02*
X107552380Y-86488095D01*
X107552380Y-86202380D02*
X106552380Y-86202380D01*
X106695238Y-86297619D01*
X106790476Y-86392857D01*
X106838095Y-86488095D01*
%TO.C,SW5*%
X126301666Y-103274761D02*
X126444523Y-103322380D01*
X126682619Y-103322380D01*
X126777857Y-103274761D01*
X126825476Y-103227142D01*
X126873095Y-103131904D01*
X126873095Y-103036666D01*
X126825476Y-102941428D01*
X126777857Y-102893809D01*
X126682619Y-102846190D01*
X126492142Y-102798571D01*
X126396904Y-102750952D01*
X126349285Y-102703333D01*
X126301666Y-102608095D01*
X126301666Y-102512857D01*
X126349285Y-102417619D01*
X126396904Y-102370000D01*
X126492142Y-102322380D01*
X126730238Y-102322380D01*
X126873095Y-102370000D01*
X127206428Y-102322380D02*
X127444523Y-103322380D01*
X127635000Y-102608095D01*
X127825476Y-103322380D01*
X128063571Y-102322380D01*
X128920714Y-102322380D02*
X128444523Y-102322380D01*
X128396904Y-102798571D01*
X128444523Y-102750952D01*
X128539761Y-102703333D01*
X128777857Y-102703333D01*
X128873095Y-102750952D01*
X128920714Y-102798571D01*
X128968333Y-102893809D01*
X128968333Y-103131904D01*
X128920714Y-103227142D01*
X128873095Y-103274761D01*
X128777857Y-103322380D01*
X128539761Y-103322380D01*
X128444523Y-103274761D01*
X128396904Y-103227142D01*
%TO.C,SW3*%
X88201666Y-103274761D02*
X88344523Y-103322380D01*
X88582619Y-103322380D01*
X88677857Y-103274761D01*
X88725476Y-103227142D01*
X88773095Y-103131904D01*
X88773095Y-103036666D01*
X88725476Y-102941428D01*
X88677857Y-102893809D01*
X88582619Y-102846190D01*
X88392142Y-102798571D01*
X88296904Y-102750952D01*
X88249285Y-102703333D01*
X88201666Y-102608095D01*
X88201666Y-102512857D01*
X88249285Y-102417619D01*
X88296904Y-102370000D01*
X88392142Y-102322380D01*
X88630238Y-102322380D01*
X88773095Y-102370000D01*
X89106428Y-102322380D02*
X89344523Y-103322380D01*
X89535000Y-102608095D01*
X89725476Y-103322380D01*
X89963571Y-102322380D01*
X90249285Y-102322380D02*
X90868333Y-102322380D01*
X90535000Y-102703333D01*
X90677857Y-102703333D01*
X90773095Y-102750952D01*
X90820714Y-102798571D01*
X90868333Y-102893809D01*
X90868333Y-103131904D01*
X90820714Y-103227142D01*
X90773095Y-103274761D01*
X90677857Y-103322380D01*
X90392142Y-103322380D01*
X90296904Y-103274761D01*
X90249285Y-103227142D01*
%TD*%
M02*
